<svg width="220" height="47" viewBox="0 0 220 47" fill="none" xmlns="http://www.w3.org/2000/svg">
<g filter="url(#filter0_i)">
<rect width="220" height="47" fill="#EE3643"/>
</g>
<path fill-rule="evenodd" clip-rule="evenodd" d="M157.069 14.8783V29.6696H154.956V14.8783H151.199V13.2348H160.825V14.8783H157.069ZM148.934 23.577C148.566 24.0387 148.104 24.3674 147.548 24.563C146.993 24.7587 146.331 24.8565 145.564 24.8565C145.204 24.8565 144.797 24.833 144.344 24.7861C143.89 24.7391 143.514 24.6843 143.217 24.6217V29.6696H141.104V13.4696C141.698 13.2974 142.297 13.1761 142.9 13.1057C143.502 13.0352 144.156 13 144.86 13C145.799 13 146.597 13.0978 147.255 13.2935C147.912 13.4891 148.444 13.8139 148.851 14.2678C149.258 14.7217 149.556 15.3243 149.744 16.0757C149.931 16.827 150.025 17.7583 150.025 18.8696C150.025 20.0122 149.935 20.967 149.755 21.7339C149.575 22.5009 149.301 23.1152 148.934 23.577ZM147.736 16.7565C147.619 16.193 147.435 15.747 147.184 15.4183C146.934 15.0896 146.617 14.8587 146.234 14.7257C145.85 14.5926 145.392 14.5261 144.86 14.5261H143.217V23.213H144.86C145.392 23.213 145.85 23.1465 146.234 23.0135C146.617 22.8804 146.934 22.6496 147.184 22.3209C147.435 21.9922 147.619 21.5461 147.736 20.9826C147.854 20.4191 147.912 19.7148 147.912 18.8696C147.912 18.0243 147.854 17.32 147.736 16.7565ZM135.821 25.4435H131.125L130.069 29.6696H127.956L131.947 13.2348H134.999L138.991 29.6696H136.877L135.821 25.4435ZM133.52 15.5826H133.426L131.477 23.8H135.469L133.52 15.5826ZM123.377 17.4609H123.26L119.856 27.5565H117.743L114.338 17.4609H114.221L113.517 29.6696H111.404L112.343 13.2348H114.925L118.752 24.5043H118.846L122.673 13.2348H125.256L126.195 29.6696H124.082L123.377 17.4609ZM107.6 28.1435C107.162 28.7852 106.634 29.2391 106.015 29.5052C105.397 29.7713 104.689 29.9043 103.891 29.9043C103.092 29.9043 102.384 29.7713 101.766 29.5052C101.147 29.2391 100.619 28.7852 100.181 28.1435C99.7427 27.5017 99.4101 26.637 99.1831 25.5491C98.9562 24.4613 98.8427 23.0957 98.8427 21.4522C98.8427 19.8087 98.9562 18.443 99.1831 17.3552C99.4101 16.2674 99.7427 15.4026 100.181 14.7609C100.619 14.1191 101.147 13.6652 101.766 13.3991C102.384 13.133 103.092 13 103.891 13C104.689 13 105.397 13.133 106.015 13.3991C106.634 13.6652 107.162 14.1191 107.6 14.7609C108.038 15.4026 108.371 16.2674 108.598 17.3552C108.825 18.443 108.938 19.8087 108.938 21.4522C108.938 23.0957 108.825 24.4613 108.598 25.5491C108.371 26.637 108.038 27.5017 107.6 28.1435ZM106.579 17.9774C106.414 17.0696 106.199 16.3496 105.933 15.8174C105.667 15.2852 105.354 14.9174 104.994 14.7139C104.634 14.5104 104.266 14.4087 103.891 14.4087C103.515 14.4087 103.147 14.5104 102.787 14.7139C102.427 14.9174 102.114 15.2852 101.848 15.8174C101.582 16.3496 101.367 17.0696 101.202 17.9774C101.038 18.8852 100.956 20.0435 100.956 21.4522C100.956 22.8609 101.038 24.0191 101.202 24.927C101.367 25.8348 101.582 26.5548 101.848 27.087C102.114 27.6191 102.427 27.987 102.787 28.1904C103.147 28.3939 103.515 28.4957 103.891 28.4957C104.266 28.4957 104.634 28.3939 104.994 28.1904C105.354 27.987 105.667 27.6191 105.933 27.087C106.199 26.5548 106.414 25.8348 106.579 24.927C106.743 24.0191 106.825 22.8609 106.825 21.4522C106.825 20.0435 106.743 18.8852 106.579 17.9774ZM93.9123 22.1565H88.9818V29.6696H86.8688V13.2348H88.9818V20.513H93.9123V13.2348H96.0253V29.6696H93.9123V22.1565ZM82.7609 29.6696L79.8261 22.6261L76.8913 29.6696H74.7783L78.3 21.2174L75.1304 13.2348H77.2435L79.8261 19.8087L82.4087 13.2348H84.5217L81.3522 21.2174L84.8739 29.6696H82.7609ZM65.5043 13.2348H73.487V14.8783H67.6174V20.2783H72.7826V21.9217H67.6174V28.0261H73.487V29.6696H65.5043V13.2348ZM59.8696 29.6696H57.7565V14.8783H54V13.2348H63.6261V14.8783H59.8696V29.6696Z" fill="white"/>
<defs>
<filter id="filter0_i" x="0" y="0" width="220" height="47" filterUnits="userSpaceOnUse" color-interpolation-filters="sRGB">
<feFlood flood-opacity="0" result="BackgroundImageFix"/>
<feBlend mode="normal" in="SourceGraphic" in2="BackgroundImageFix" result="shape"/>
<feColorMatrix in="SourceAlpha" type="matrix" values="0 0 0 0 0 0 0 0 0 0 0 0 0 0 0 0 0 0 127 0" result="hardAlpha"/>
<feOffset dy="-5"/>
<feComposite in2="hardAlpha" operator="arithmetic" k2="-1" k3="1"/>
<feColorMatrix type="matrix" values="0 0 0 0 0 0 0 0 0 0 0 0 0 0 0 0 0 0 0.24 0"/>
<feBlend mode="normal" in2="shape" result="effect1_innerShadow"/>
</filter>
</defs>
</svg>
